<?xml version="1.0" encoding="UTF-8" standalone="no"?>
<!-- Created with Inkscape (http://www.inkscape.org/) -->

<svg
   width="75mm"
   height="18.385515mm"
   viewBox="0 0 75 18.385515"
   version="1.1"
   id="svg1"
   xml:space="preserve"
   inkscape:version="1.4 (e7c3feb100, 2024-10-09)"
   sodipodi:docname="james.svg"
   xmlns:inkscape="http://www.inkscape.org/namespaces/inkscape"
   xmlns:sodipodi="http://sodipodi.sourceforge.net/DTD/sodipodi-0.dtd"
   xmlns="http://www.w3.org/2000/svg"
   xmlns:svg="http://www.w3.org/2000/svg"><sodipodi:namedview
     id="namedview1"
     pagecolor="#ffffff"
     bordercolor="#000000"
     borderopacity="0.25"
     inkscape:showpageshadow="2"
     inkscape:pageopacity="0.0"
     inkscape:pagecheckerboard="0"
     inkscape:deskcolor="#d1d1d1"
     inkscape:document-units="mm"
     showgrid="true"
     showguides="true"
     inkscape:export-bgcolor="#ffffffff"
     inkscape:zoom="2"
     inkscape:cx="202"
     inkscape:cy="57.999999"
     inkscape:window-width="1920"
     inkscape:window-height="998"
     inkscape:window-x="0"
     inkscape:window-y="0"
     inkscape:window-maximized="1"
     inkscape:current-layer="layer1"><inkscape:grid
       id="grid1"
       units="mm"
       originx="-0.2790659"
       originy="-0.27852772"
       spacingx="0.99999998"
       spacingy="1"
       empcolor="#0099e5"
       empopacity="0.30196078"
       color="#0099e5"
       opacity="0.14901961"
       empspacing="5"
       enabled="true"
       visible="true" /><sodipodi:guide
       position="7.1640586,264.77852"
       orientation="0,-1"
       id="guide1"
       inkscape:locked="false" /><sodipodi:guide
       position="16.271714,275.22774"
       orientation="0,-1"
       id="guide7"
       inkscape:locked="false" /><sodipodi:guide
       position="10.619371,279.22774"
       orientation="0,-1"
       id="guide8"
       inkscape:locked="false" /><sodipodi:guide
       position="17.619371,278.77852"
       orientation="1,0"
       id="guide9"
       inkscape:locked="false" /><sodipodi:guide
       position="29.271713,274.88008"
       orientation="0,-1"
       id="guide10"
       inkscape:locked="false" /><sodipodi:guide
       position="43.271711,277.88008"
       orientation="0,-1"
       id="guide11"
       inkscape:locked="false" /></sodipodi:namedview><defs
     id="defs1" /><g
     inkscape:label="Layer 1"
     inkscape:groupmode="layer"
     id="layer1"
     transform="translate(-0.27906588,-0.27852772)"><g
       id="g6"
       transform="matrix(1.9561781,0,0,1.9561781,-0.26683625,-12.00339)"
       style="fill:#000000;fill-opacity:1;stroke:#ffffff;stroke-width:0.5;stroke-linecap:round;stroke-dasharray:none;stroke-opacity:1;paint-order:stroke fill markers"><path
         id="path4"
         style="opacity:1;fill:#000000;fill-opacity:1;stroke:#ffffff;stroke-width:0.5;stroke-linecap:round;stroke-dasharray:none;stroke-opacity:1;paint-order:stroke fill markers"
         d="m 0.52906566,6.5285274 v 0.898654 H 5.5292775 V 10.528801 H 0.52906566 v 2.448946 c 0,0.669836 0.280331,1.304846 0.79116614,1.750281 0.510835,0.445435 1.2358708,0.699182 2.1016805,0.699182 0.9504404,0 1.7026203,-0.221523 2.2282882,-0.664042 0.525668,-0.442519 0.777213,-1.095318 0.777213,-1.785421 v -1.55081 h 6.1019525 v 1.55081 c 0,0 -0.0074,0.565117 0.21084,1.156519 0.109099,0.295701 0.277266,0.610869 0.558622,0.865063 0.281357,0.254195 0.685411,0.427883 1.156002,0.427881 0.479461,-3e-6 0.886702,-0.170991 1.175639,-0.423747 0.288936,-0.252757 0.465225,-0.568941 0.578259,-0.86558 0.226068,-0.593277 0.218592,-1.160136 0.218592,-1.160136 V 8.9779904 c 0,0 0.0068,-0.436876 0.156579,-0.845943 0.07486,-0.204534 0.181921,-0.389068 0.314193,-0.509529 0.132271,-0.120461 0.281625,-0.195337 0.545186,-0.195337 0.286324,0 0.45047,0.08049 0.591695,0.203088 0.141225,0.122596 0.254277,0.306391 0.33228,0.50953 0.156005,0.406279 0.161747,0.838191 0.161747,0.838191 v 0.999939 h 0.898653 v -0.999939 c 0,0 0.0055,-0.43427 0.15813,-0.841809 0.07628,-0.203769 0.187387,-0.388581 0.324011,-0.510046 0.136623,-0.121464 0.293165,-0.198954 0.568441,-0.198954 0.275262,0 0.431626,0.07741 0.568441,0.198954 0.136816,0.121547 0.24599,0.306237 0.322461,0.510046 0.152941,0.407618 0.160197,0.841809 0.160197,0.841809 v 4.0018236 c 0,0 -0.0051,0.565396 0.216524,1.156519 0.11078,0.295562 0.281618,0.609402 0.564307,0.862996 0.282689,0.253595 0.687265,0.427879 1.158585,0.427881 0.471316,2e-6 0.873879,-0.173243 1.158069,-0.425814 0.139336,-0.123832 0.250761,-0.262877 0.342615,-0.406693 0.09145,0.14404 0.203791,0.282801 0.343131,0.406693 0.285097,0.25349 0.690898,0.425814 1.165821,0.425814 0,0 5.941657,2e-5 9.441801,0 0.810318,-4e-6 1.451295,-0.123833 1.890324,-0.564823 0.439029,-0.440989 0.558622,-1.080598 0.558622,-1.88464 0,-0.805668 -0.125994,-1.447271 -0.566374,-1.886706 -0.44038,-0.439435 -1.079936,-0.56224 -1.882572,-0.56224 h -2.000395 c -0.692362,0 -1.058912,-0.105635 -1.240234,-0.277502 -0.181322,-0.171867 -0.310576,-0.5239056 -0.310576,-1.2733086 0,-0.648143 0.115489,-1.014424 0.306958,-1.214913 0.191468,-0.200489 0.544791,-0.335896 1.243852,-0.335896 h 4.449341 v -0.898654 h -4.449341 c -0.817762,0 -1.465132,0.163848 -1.894458,0.6134 -0.429326,0.449552 -0.554488,1.08437 -0.554488,1.836063 0,0.849455 0.137643,1.4970466 0.589628,1.9254646 0.451986,0.428418 1.08491,0.523482 1.859318,0.523482 h 2.000395 c 0.705985,0 1.065521,0.118684 1.247986,0.300757 0.182465,0.182073 0.302825,0.541754 0.302824,1.250053 0,0.709924 -0.117425,1.069536 -0.29714,1.250053 -0.179714,0.180517 -0.538961,0.300753 -1.25367,0.300757 -3.500133,1.9e-5 -9.441801,0 -9.441801,0 -0.274869,0 -0.431781,-0.07744 -0.568441,-0.198954 -0.13666,-0.121509 -0.246045,-0.306216 -0.322461,-0.510047 -0.150713,-0.402012 -0.159454,-0.825891 -0.15968,-0.837675 v -0.0041 -2.550748 H 29.97843 V 9.5288954 h -4.550626 v -2.10168 H 29.97843 V 6.5285614 H 24.529151 V 12.97003 c 0,0 -0.01419,0.436122 -0.172083,0.845943 -0.07895,0.20491 -0.190391,0.391238 -0.328145,0.513664 -0.137754,0.122427 -0.291586,0.198955 -0.560173,0.198954 -0.268595,-1e-6 -0.421223,-0.07755 -0.556555,-0.198954 -0.135333,-0.12141 -0.245836,-0.305611 -0.322461,-0.510047 -0.152907,-0.407959 -0.162228,-0.839872 -0.162264,-0.841809 v -0.0021 -3.9976896 c 0,0 0.0073,-0.565686 -0.214974,-1.158068 -0.111133,-0.296191 -0.282632,-0.612127 -0.567924,-0.865581 -0.285293,-0.253453 -0.691185,-0.425814 -1.166337,-0.425814 -0.47516,0 -0.882709,0.172279 -1.167887,0.425814 -0.169255,0.150476 -0.235674,0.336298 -0.335897,0.513664 -0.103244,-0.179249 -0.175696,-0.366099 -0.34985,-0.517281 -0.290757,-0.252404 -0.699679,-0.422197 -1.181323,-0.422197 -0.468471,0 -0.870821,0.175409 -1.150317,0.429948 -0.279496,0.254539 -0.44686,0.569598 -0.555005,0.865064 -0.216291,0.590933 -0.208773,1.154451 -0.208773,1.154451 v 3.9997566 c 0,0 -0.0073,0.433021 -0.162264,0.839742 -0.07749,0.20336 -0.188402,0.387803 -0.328145,0.510047 -0.139743,0.122245 -0.301307,0.20102 -0.583944,0.201021 -0.267311,2e-6 -0.418707,-0.0766 -0.552421,-0.197404 -0.133714,-0.120805 -0.2414,-0.30523 -0.316776,-0.50953 -0.150753,-0.4086 -0.15813,-0.843876 -0.15813,-0.843876 v -1.55081 -4.8984096 h -0.898437 c 0,1.173902 -0.757608,4.0002736 -6.1016525,4.0002736 V 6.5285284 Z M 1.4277188,11.426937 h 4.1015587 v 1.55081 c 0,0.48723 -0.1462947,0.834461 -0.458887,1.097608 -0.3125923,0.263148 -0.8382086,0.453202 -1.6484782,0.453202 -0.6920614,0 -1.1887255,-0.198394 -1.5099853,-0.478524 -0.3212597,-0.28013 -0.4842082,-0.64438 -0.4842082,-1.072286 z"
         inkscape:export-filename="path4.png"
         inkscape:export-xdpi="96"
         inkscape:export-ydpi="96"
         sodipodi:nodetypes="cccccsssssccccsssscccsssscccccsssscccssscscssssssssssccsssssssssscsscccccccccccsssssccccssscsssscccsssscccccccccsssssc" /></g></g></svg>
